<svg width="24" height="24" viewBox="0 0 24 24" fill="none" xmlns="http://www.w3.org/2000/svg"><path d="M20.7162 5.29C18.5534 2.47889 15.2908 1 11.9916 1C9.6577 1 7.29936 1.74556 5.29539 3.28556C0.480952 6.98889 -0.423282 13.8944 3.27919 18.71C5.45424 21.5211 8.71681 23 12.016 23C14.3499 23 16.7083 22.2544 18.7123 20.7144C23.5267 17.0111 24.4187 10.1056 20.7162 5.29Z" fill="#F7B82B"></path><path d="M12.0038 20.2623C11.2951 20.2623 10.5864 20.1767 9.87763 19.9812C8.26467 19.5534 6.82279 18.6489 5.74748 17.3778C5.61307 17.2189 5.63751 16.9867 5.78414 16.8645C5.93077 16.73 6.16294 16.7545 6.29735 16.9012C7.28712 18.0623 8.5946 18.8812 10.0609 19.2723C14.0689 20.3356 18.199 17.9523 19.2743 13.9434C19.8731 11.6945 19.421 9.32338 18.0035 7.4656C17.8813 7.30671 17.918 7.07449 18.0768 6.95227C18.2357 6.83005 18.4679 6.86671 18.59 7.0256C20.1297 9.06671 20.6429 11.6578 19.9831 14.1389C18.9933 17.8178 15.6452 20.2623 12.0038 20.2623Z" fill="white"></path><path d="M12.6025 7.24559C10.8918 7.3067 9.57207 8.79781 9.63316 10.4967L9.75536 13.43C9.79202 14.2245 9.32768 14.9211 8.64339 15.1778C8.5212 15.2267 8.50898 15.3978 8.63117 15.4589L9.52319 15.9234C9.66982 15.9967 9.85311 15.9845 9.98753 15.8745C10.7085 15.2878 11.1606 14.3711 11.1117 13.3689L10.9895 10.4111C10.9651 9.48225 11.6738 8.66337 12.6025 8.61448C13.5678 8.55337 14.3743 9.31114 14.4109 10.2767C14.4354 11.2178 13.6778 11.9878 12.7369 12.0245L11.9793 12.0489C11.8571 12.0489 11.7716 12.1467 11.7716 12.2689L11.8082 13.21C11.8082 13.3323 11.906 13.4178 12.0282 13.4178L12.7613 13.3811C14.4598 13.3078 15.8406 11.8534 15.7551 10.1545C15.694 8.49225 14.2765 7.18448 12.6025 7.24559Z" fill="white"></path></svg>