<svg height="20" viewBox="0 0 20 20" width="20" xmlns="http://www.w3.org/2000/svg"><path d="M17.494 4.552a.625.625 0 0 1 .105.546l-1.484 5.364a.625.625 0 0 1-.603.458H7.817l.03.088c.041.119.047.245.015.365l-.385 1.474h8.53v1.25h-9.34a.627.627 0 0 1-.605-.783l.543-2.072-2.603-7.405H2.153v-1.25h2.292c.265 0 .502.167.59.417l.457 1.302h11.505c.195 0 .38.09.497.246zM15.037 9.67l1.139-4.114H5.93L7.377 9.67zm-6.391 6.718a1.25 1.25 0 1 1-2.501 0 1.25 1.25 0 0 1 2.5 0zm7.361 0a1.25 1.25 0 1 1-2.5 0 1.25 1.25 0 0 1 2.5 0z" fill="#39393e" class="color"></path></svg>